<?xml version="1.0" encoding="utf-8"?>
<!-- Generator: Adobe Illustrator 23.1.0, SVG Export Plug-In . SVG Version: 6.00 Build 0)  -->
<svg version="1.1" id="Layer_1" xmlns="http://www.w3.org/2000/svg" xmlns:xlink="http://www.w3.org/1999/xlink" x="0px" y="0px"
	 viewBox="0 0 141.3 24.1" style="enable-background:new 0 0 141.3 24.1;" xml:space="preserve">
<style type="text/css">
	.st0{fill:#AD9459;}
</style>
<g>
	<path class="st0" d="M12.6,10.3c0,0.5,0,0.9-0.1,1.3c-0.1,1.1-0.4,2-0.9,2.9s-0.9,1.5-1.5,2c-0.6,0.5-1.1,0.7-1.6,0.7
		c-0.4,0-0.7-0.1-1-0.4c-0.3-0.3-0.5-0.6-0.7-1.1c-0.4,0.5-0.8,0.9-1.3,1.1c-0.4,0.3-0.9,0.4-1.3,0.4c-0.6,0-1-0.2-1.4-0.7
		c-0.3-0.5-0.5-1-0.5-1.7c0-0.5,0.1-1.1,0.3-1.7c0.2-0.6,0.5-1.3,0.9-2.2c0.1-0.1,0.1-0.2,0.2-0.3c0-0.1,0.1-0.2,0.1-0.3
		C4,10.1,4.1,10,4.1,9.9c0-0.1-0.1-0.2-0.3-0.2H2.7c-0.4,0-0.6,0-0.8,0.1C1.7,9.8,1.6,9.9,1.5,10c-0.1,0.1-0.2,0.4-0.3,0.7
		c0,0-0.1,0.1-0.1,0.1c0,0-0.1,0-0.1,0c0,0,0-0.1,0-0.1C1.2,10,1.3,9.5,1.5,9.3S1.8,8.8,2,8.7c0.2-0.1,0.5-0.1,1-0.1h1.8
		c0.2,0,0.2,0,0.2,0.1c0,0,0,0.1-0.1,0.2c-0.3,0.8-0.6,1.6-0.9,2.5c-0.3,0.8-0.4,1.6-0.5,2.2c0,0.3,0,0.5,0,0.7
		c0,0.6,0.1,1.1,0.4,1.5c0.2,0.4,0.6,0.5,1,0.5c0.3,0,0.6-0.1,0.9-0.3c0.3-0.2,0.6-0.4,0.9-0.8c-0.1-0.5-0.2-1.1-0.2-1.8
		c0-0.5,0-1,0.1-1.5c0.1-1,0.4-1.8,0.7-2.4c0.3-0.6,0.6-0.9,1-0.9c0.2,0,0.4,0.1,0.6,0.4C8.9,9.1,9,9.4,9,9.8c0,0.2,0,0.5-0.1,0.9
		c-0.2,1.6-0.7,3-1.5,4.1c0.4,0.9,1,1.3,1.7,1.3c0.3,0,0.7-0.1,1.1-0.4c0.4-0.3,0.7-0.7,1-1.2c0.3-0.5,0.5-1.1,0.6-1.8
		c0.1-0.3,0.1-0.7,0.1-1c0-0.5-0.1-0.8-0.2-1.1s-0.3-0.5-0.5-0.8c-0.1-0.1-0.2-0.2-0.3-0.3c-0.1-0.1-0.1-0.2-0.1-0.4
		c0-0.2,0.1-0.4,0.2-0.5c0.2-0.1,0.4-0.2,0.6-0.2C12.3,8.3,12.6,9,12.6,10.3z M7,12.4c0,0.7,0.1,1.4,0.3,2c0.5-0.9,0.9-1.9,1.1-3
		c0-0.3,0-0.5,0-0.6c0-0.3,0-0.6-0.1-0.8S8,9.7,7.8,9.7c-0.2,0-0.4,0.1-0.5,0.4c-0.1,0.3-0.2,0.6-0.3,1.1C7,11.6,7,12,7,12.4z"/>
	<path class="st0" d="M25.2,10.3c0,0.5,0,0.9-0.1,1.3c-0.1,1.1-0.4,2-0.9,2.9c-0.4,0.9-0.9,1.5-1.5,2c-0.6,0.5-1.1,0.7-1.6,0.7
		c-0.4,0-0.7-0.1-1-0.4c-0.3-0.3-0.5-0.6-0.7-1.1c-0.4,0.5-0.8,0.9-1.3,1.1c-0.4,0.3-0.9,0.4-1.3,0.4c-0.6,0-1-0.2-1.4-0.7
		c-0.3-0.5-0.5-1-0.5-1.7c0-0.5,0.1-1.1,0.3-1.7c0.2-0.6,0.5-1.3,0.9-2.2c0.1-0.1,0.1-0.2,0.2-0.3c0-0.1,0.1-0.2,0.1-0.3
		c0.1-0.1,0.1-0.2,0.1-0.3c0-0.1-0.1-0.2-0.3-0.2h-1.1c-0.4,0-0.6,0-0.8,0.1C14.3,9.8,14.1,9.9,14,10c-0.1,0.1-0.2,0.4-0.3,0.7
		c0,0-0.1,0.1-0.1,0.1c0,0-0.1,0-0.1,0c0,0,0-0.1,0-0.1c0.2-0.7,0.4-1.1,0.5-1.4c0.1-0.3,0.3-0.5,0.5-0.6c0.2-0.1,0.5-0.1,1-0.1h1.8
		c0.2,0,0.2,0,0.2,0.1c0,0,0,0.1-0.1,0.2c-0.3,0.8-0.6,1.6-0.9,2.5c-0.3,0.8-0.4,1.6-0.5,2.2c0,0.3,0,0.5,0,0.7
		c0,0.6,0.1,1.1,0.4,1.5c0.2,0.4,0.6,0.5,1,0.5c0.3,0,0.6-0.1,0.9-0.3c0.3-0.2,0.6-0.4,0.9-0.8c-0.1-0.5-0.2-1.1-0.2-1.8
		c0-0.5,0-1,0.1-1.5c0.1-1,0.4-1.8,0.7-2.4c0.3-0.6,0.6-0.9,1-0.9c0.2,0,0.4,0.1,0.6,0.4c0.1,0.3,0.2,0.6,0.2,1c0,0.2,0,0.5-0.1,0.9
		c-0.2,1.6-0.7,3-1.5,4.1c0.4,0.9,1,1.3,1.7,1.3c0.3,0,0.7-0.1,1.1-0.4s0.7-0.7,1-1.2c0.3-0.5,0.5-1.1,0.6-1.8
		c0.1-0.3,0.1-0.7,0.1-1c0-0.5-0.1-0.8-0.2-1.1S24,10,23.8,9.8c-0.1-0.1-0.2-0.2-0.3-0.3c-0.1-0.1-0.1-0.2-0.1-0.4
		c0-0.2,0.1-0.4,0.2-0.5c0.2-0.1,0.4-0.2,0.6-0.2C24.9,8.3,25.2,9,25.2,10.3z M19.5,12.4c0,0.7,0.1,1.4,0.3,2c0.5-0.9,0.9-1.9,1.1-3
		c0-0.3,0-0.5,0-0.6c0-0.3,0-0.6-0.1-0.8c-0.1-0.2-0.2-0.3-0.4-0.3c-0.2,0-0.4,0.1-0.5,0.4c-0.1,0.3-0.2,0.6-0.3,1.1
		C19.5,11.6,19.5,12,19.5,12.4z"/>
	<path class="st0" d="M37.7,10.3c0,0.5,0,0.9-0.1,1.3c-0.1,1.1-0.4,2-0.9,2.9c-0.4,0.9-0.9,1.5-1.5,2c-0.6,0.5-1.1,0.7-1.6,0.7
		c-0.4,0-0.7-0.1-1-0.4c-0.3-0.3-0.5-0.6-0.7-1.1c-0.4,0.5-0.8,0.9-1.3,1.1s-0.9,0.4-1.3,0.4c-0.6,0-1-0.2-1.4-0.7
		c-0.3-0.5-0.5-1-0.5-1.7c0-0.5,0.1-1.1,0.3-1.7c0.2-0.6,0.5-1.3,0.9-2.2c0.1-0.1,0.1-0.2,0.2-0.3c0-0.1,0.1-0.2,0.1-0.3
		c0.1-0.1,0.1-0.2,0.1-0.3c0-0.1-0.1-0.2-0.3-0.2h-1.1c-0.4,0-0.6,0-0.8,0.1c-0.2,0.1-0.3,0.1-0.4,0.3c-0.1,0.1-0.2,0.4-0.3,0.7
		c0,0-0.1,0.1-0.1,0.1c0,0-0.1,0-0.1,0c0,0,0-0.1,0-0.1c0.2-0.7,0.4-1.1,0.5-1.4c0.1-0.3,0.3-0.5,0.5-0.6c0.2-0.1,0.5-0.1,1-0.1h1.8
		c0.2,0,0.2,0,0.2,0.1c0,0,0,0.1-0.1,0.2c-0.3,0.8-0.6,1.6-0.9,2.5c-0.3,0.8-0.4,1.6-0.5,2.2c0,0.3,0,0.5,0,0.7
		c0,0.6,0.1,1.1,0.4,1.5c0.2,0.4,0.6,0.5,1,0.5c0.3,0,0.6-0.1,0.9-0.3c0.3-0.2,0.6-0.4,0.9-0.8c-0.1-0.5-0.2-1.1-0.2-1.8
		c0-0.5,0-1,0.1-1.5c0.1-1,0.4-1.8,0.7-2.4c0.3-0.6,0.6-0.9,1-0.9c0.2,0,0.4,0.1,0.6,0.4c0.1,0.3,0.2,0.6,0.2,1c0,0.2,0,0.5-0.1,0.9
		c-0.2,1.6-0.7,3-1.5,4.1c0.4,0.9,1,1.3,1.7,1.3c0.3,0,0.7-0.1,1.1-0.4s0.7-0.7,1-1.2c0.3-0.5,0.5-1.1,0.6-1.8
		c0.1-0.3,0.1-0.7,0.1-1c0-0.5-0.1-0.8-0.2-1.1s-0.3-0.5-0.5-0.8c-0.1-0.1-0.2-0.2-0.3-0.3S36,9.2,36,9.1c0-0.2,0.1-0.4,0.2-0.5
		c0.2-0.1,0.4-0.2,0.6-0.2C37.4,8.3,37.7,9,37.7,10.3z M32,12.4c0,0.7,0.1,1.4,0.3,2c0.5-0.9,0.9-1.9,1.1-3c0-0.3,0-0.5,0-0.6
		c0-0.3,0-0.6-0.1-0.8c-0.1-0.2-0.2-0.3-0.4-0.3c-0.2,0-0.4,0.1-0.5,0.4c-0.1,0.3-0.2,0.6-0.3,1.1C32.1,11.6,32,12,32,12.4z"/>
	<path class="st0" d="M38.6,16.8c-0.2-0.2-0.2-0.4-0.2-0.7c0-0.3,0.1-0.5,0.2-0.6s0.4-0.2,0.7-0.2c0.3,0,0.5,0.1,0.6,0.2
		s0.2,0.4,0.2,0.6c0,0.3-0.1,0.5-0.2,0.7c-0.2,0.2-0.4,0.2-0.6,0.2C39,17,38.8,17,38.6,16.8z"/>
	<path class="st0" d="M48.1,10.5c-0.4,0.4-1,0.8-1.8,1.1s-1.6,0.5-2.4,0.7c-0.1,0.5-0.1,0.9-0.1,1.2c0,0.9,0.2,1.6,0.6,2.1
		c0.4,0.5,0.9,0.8,1.6,0.8c0.8,0,1.5-0.2,2.1-0.7h0c0,0,0.1,0,0.1,0.1c0,0,0,0.1,0,0.1c-1,0.8-2,1.2-3,1.2c-0.9,0-1.5-0.3-2-0.9
		c-0.4-0.6-0.7-1.3-0.7-2.2c0-0.3,0-0.7,0.1-1.1c0.1-0.7,0.4-1.5,0.9-2.2s1-1.3,1.7-1.8c0.7-0.5,1.4-0.7,2.1-0.7
		c0.5,0,0.8,0.1,1.1,0.3c0.2,0.2,0.4,0.4,0.4,0.7C48.8,9.7,48.5,10.1,48.1,10.5z M44.8,9.7c-0.4,0.6-0.7,1.3-0.9,2.2
		c1-0.2,1.7-0.4,2.3-0.8c0.6-0.3,1-0.8,1.1-1.3c0-0.1,0-0.2,0-0.3c0-0.2-0.1-0.4-0.3-0.5c-0.2-0.1-0.4-0.2-0.7-0.2
		C45.8,8.8,45.3,9.1,44.8,9.7z"/>
	<path class="st0" d="M57.5,9.5c0,1.2-0.5,2.8-1.6,5c-1.1,2.2-2.3,4.1-3.7,5.8c-1.4,1.7-2.6,2.5-3.5,2.5c-0.3,0-0.5-0.1-0.7-0.2
		c-0.2-0.1-0.2-0.4-0.2-0.7c0.1-0.4,0.4-0.6,0.8-0.6c0.6,0,1.1,0,1.4-0.1c0.4-0.1,0.7-0.2,1-0.4c0.4-0.3,1-1,1.7-2l0-1.1
		c0-2.7-0.2-4.8-0.6-6.3c-0.4-1.5-1-2.2-1.7-2.2c-0.4,0-0.8,0.3-1,0.8c0,0-0.1,0.1-0.1,0.1c-0.1,0-0.1,0-0.1-0.1
		c0.5-1.1,1.2-1.7,1.9-1.7c0.6,0,1.1,0.3,1.5,1c0.4,0.7,0.7,1.6,1,2.8c0.2,1.2,0.3,2.5,0.3,4c0,0.5,0,0.9,0,1.1
		c0.6-1,1.1-1.9,1.6-2.8s0.7-1.7,0.9-2.2c0.1-0.3,0.1-0.6,0.1-0.9c0-0.5-0.1-1.1-0.3-1.7C56,9.4,55.9,9.2,55.9,9
		c0-0.2,0.1-0.4,0.2-0.5c0.1-0.1,0.3-0.2,0.5-0.2C57.2,8.3,57.5,8.7,57.5,9.5z"/>
	<path class="st0" d="M59.5,16.8c-0.1-0.1-0.2-0.4-0.2-0.8c0-0.3,0-0.7,0.1-1.1l2-11.4c0-0.1,0-0.3,0-0.5c0-0.4-0.1-0.5-0.4-0.5
		c-0.2,0-0.6,0.1-1,0.3h0c-0.1,0-0.1,0-0.1-0.1c0-0.1,0-0.1,0.1-0.1l2.7-1.4h0c0.1,0,0.1,0,0.2,0.1c0,0,0.1,0.1,0.1,0.1l-2.4,13.5
		c-0.1,0.3-0.1,0.5-0.1,0.6c0,0.2,0,0.4,0.1,0.5c0.1,0.1,0.2,0.2,0.3,0.2c0.3,0,0.7-0.3,1.3-1c0,0,0.1,0,0.1,0c0,0,0.1,0,0.1,0.1
		c0,0.1,0,0.1,0,0.1c-0.5,0.6-0.9,1-1.3,1.3c-0.4,0.3-0.7,0.4-1.1,0.4C59.9,17,59.7,17,59.5,16.8z"/>
	<path class="st0" d="M69.3,10.5c-0.4,0.4-1,0.8-1.8,1.1c-0.8,0.3-1.6,0.5-2.4,0.7c-0.1,0.5-0.1,0.9-0.1,1.2c0,0.9,0.2,1.6,0.6,2.1
		c0.4,0.5,0.9,0.8,1.6,0.8c0.8,0,1.5-0.2,2.1-0.7h0c0,0,0.1,0,0.1,0.1c0,0,0,0.1,0,0.1c-1,0.8-2,1.2-3,1.2c-0.9,0-1.5-0.3-2-0.9
		c-0.4-0.6-0.7-1.3-0.7-2.2c0-0.3,0-0.7,0.1-1.1c0.1-0.7,0.4-1.5,0.9-2.2c0.5-0.7,1-1.3,1.7-1.8c0.7-0.5,1.4-0.7,2.1-0.7
		c0.5,0,0.8,0.1,1.1,0.3c0.2,0.2,0.4,0.4,0.4,0.7C69.9,9.7,69.7,10.1,69.3,10.5z M66,9.7c-0.4,0.6-0.7,1.3-0.9,2.2
		c1-0.2,1.7-0.4,2.3-0.8c0.6-0.3,1-0.8,1.1-1.3c0-0.1,0-0.2,0-0.3c0-0.2-0.1-0.4-0.3-0.5c-0.2-0.1-0.4-0.2-0.7-0.2
		C67,8.8,66.4,9.1,66,9.7z"/>
	<path class="st0" d="M83.8,15.1c0,0,0.1,0,0.1,0.1c0,0.1,0,0.1,0,0.1c-0.5,0.6-0.9,1-1.3,1.3c-0.4,0.3-0.7,0.4-1.1,0.4
		c-0.2,0-0.4-0.1-0.5-0.2c-0.1-0.1-0.2-0.4-0.2-0.7c0-0.3,0-0.7,0.1-1.2l0.6-3.4c0.1-0.4,0.1-0.8,0.1-1.2c0-0.4-0.1-0.7-0.2-0.9
		c-0.1-0.2-0.3-0.3-0.6-0.3c-0.4,0-0.9,0.3-1.3,0.9s-0.9,1.4-1.3,2.5c-0.4,1.1-0.8,2.4-1,3.9l0,0.3c0,0.1-0.1,0.2-0.2,0.2
		C76.8,17,76.7,17,76.5,17c-0.2,0-0.3,0-0.4,0C76,17,76,16.9,76,16.9l0.1-0.5l0.2-1.1l0.7-3.7c0.1-0.4,0.1-0.8,0.1-1.1
		c0-0.9-0.3-1.3-0.8-1.3c-0.4,0-0.9,0.3-1.3,0.9c-0.5,0.6-0.9,1.4-1.3,2.6c-0.4,1.1-0.8,2.4-1,3.9l0,0.2c0,0.2-0.3,0.3-0.7,0.3
		c-0.2,0-0.3,0-0.4,0c-0.1,0-0.1-0.1-0.1-0.1c0,0,0.1-0.3,0.2-0.9l0.1-0.6l0.9-4.9c0-0.2,0.1-0.4,0.1-0.6c0-0.5-0.1-0.7-0.4-0.7
		c-0.2,0-0.4,0.1-0.6,0.3c-0.3,0.2-0.5,0.4-0.8,0.7c0,0,0,0-0.1,0c0,0-0.1,0-0.1-0.1s0-0.1,0-0.1c0.5-0.6,0.9-1,1.3-1.2
		s0.8-0.4,1.1-0.4c0.2,0,0.4,0.1,0.5,0.2c0.1,0.1,0.2,0.4,0.2,0.7c0,0.4,0,0.7-0.1,1.1l-0.4,2.4c0.5-1.4,1.1-2.6,1.7-3.4
		c0.7-0.8,1.3-1.2,2-1.2c0.4,0,0.7,0.1,0.9,0.4c0.2,0.3,0.3,0.6,0.3,1.2c0,0.3,0,0.8-0.1,1.3L77.8,13c0.5-1.5,1.1-2.7,1.7-3.5
		c0.7-0.8,1.4-1.2,2.1-1.2c0.4,0,0.7,0.1,1,0.4c0.2,0.3,0.3,0.7,0.3,1.2c0,0.3,0,0.8-0.1,1.2L82,14.9c0,0.2-0.1,0.4-0.1,0.6
		c0,0.4,0.1,0.7,0.4,0.7C82.6,16.2,83.1,15.8,83.8,15.1C83.7,15.2,83.8,15.1,83.8,15.1z"/>
	<path class="st0" d="M90.4,8.8c0,0.1-0.1,0.3-0.2,0.5c-0.2,0.2-0.3,0.3-0.4,0.3c-0.1,0-0.3,0-0.8-0.1c-0.5-0.1-0.9-0.1-1.4-0.1
		l-0.9,5.3c0,0.2-0.1,0.4-0.1,0.6c0,0.4,0.1,0.6,0.2,0.8c0.2,0.2,0.4,0.3,0.8,0.3c0.4,0,0.7-0.1,1-0.2c0.3-0.2,0.6-0.4,1-0.7h0
		c0,0,0.1,0,0.1,0.1c0,0,0.1,0.1,0,0.1c-0.6,0.6-1.2,1-1.6,1.2c-0.5,0.3-0.9,0.4-1.3,0.4c-0.4,0-0.7-0.1-1-0.3
		c-0.3-0.2-0.4-0.6-0.4-1c0-0.1,0-0.2,0-0.5l0.9-5c0.1-0.3,0.1-0.5,0.1-0.7c0-0.2-0.1-0.3-0.2-0.4c-0.1-0.1-0.3-0.1-0.6-0.1
		c0,0-0.1,0-0.1-0.1c0,0,0-0.1,0-0.1c0,0,0-0.1,0.1-0.1c0.5,0,0.9-0.2,1.2-0.5c0.3-0.3,0.6-0.7,0.7-1.2c0,0,0.1-0.1,0.2-0.1
		c0.1,0,0.2,0,0.2,0.1l-0.3,1.6c0.7,0,1.3-0.1,1.9-0.1l0.7,0C90.3,8.6,90.4,8.7,90.4,8.8z"/>
	<path class="st0" d="M91.6,16.2c-0.5-0.6-0.7-1.4-0.7-2.4c0-0.4,0-0.8,0.1-1.2c0.2-0.8,0.4-1.6,0.9-2.3c0.4-0.7,0.9-1.2,1.6-1.6
		c0.6-0.4,1.2-0.6,1.9-0.6c0.9,0,1.5,0.3,2,0.9c0.5,0.6,0.7,1.4,0.7,2.3c0,0.4,0,0.8-0.1,1.2c-0.2,0.9-0.5,1.7-0.9,2.3
		c-0.5,0.7-1,1.2-1.6,1.6c-0.6,0.4-1.2,0.5-1.9,0.5C92.7,17.1,92.1,16.8,91.6,16.2z M95.8,15.8c0.5-0.5,0.8-1.3,1-2.2
		c0.1-0.5,0.1-0.9,0.1-1.2c0-1-0.2-1.8-0.5-2.5c-0.4-0.7-0.9-1.1-1.6-1.1c-0.6,0-1.1,0.3-1.6,0.8c-0.5,0.5-0.8,1.3-1,2.2
		c-0.1,0.4-0.1,0.9-0.1,1.3c0,1,0.2,1.8,0.6,2.5c0.4,0.7,0.9,1,1.6,1C94.8,16.6,95.3,16.3,95.8,15.8z"/>
	<path class="st0" d="M107,15.2c0.1,0,0.1,0,0.1,0.1c0,0.1,0,0.1,0,0.1c-0.9,1.1-1.7,1.6-2.2,1.6c-0.3,0-0.6-0.1-0.8-0.3
		c-0.2-0.2-0.5-0.6-0.8-1.1l-1.2-2.2c-0.1-0.2-0.2-0.4-0.3-0.5c-0.1-0.1-0.2-0.1-0.4-0.1l-0.2,0l-0.7,3.8c0,0.1-0.1,0.2-0.2,0.2
		C100.2,17,100,17,99.9,17c-0.3,0-0.5,0-0.5-0.1l0.1-0.5c0.1-0.3,0.2-0.7,0.2-1.1l2.1-11.7c0-0.2,0-0.4,0-0.5c0-0.4-0.2-0.6-0.5-0.6
		c-0.2,0-0.6,0.1-1,0.3h0c-0.1,0-0.1,0-0.1-0.1c0-0.1,0-0.1,0-0.1l2.7-1.4h0c0.1,0,0.1,0,0.2,0.1c0,0,0.1,0.1,0.1,0.1l-1.6,8.8
		c0.5-0.6,1.1-1.1,1.7-1.4c0.6-0.4,1.3-0.5,1.9-0.5c0.4,0,0.7,0.1,0.9,0.3s0.3,0.4,0.3,0.7c0,0.1,0,0.2,0,0.3
		c-0.1,0.5-0.5,1-1.1,1.5c-0.6,0.5-1.5,0.9-2.5,1.3l1.4,2.5c0.3,0.5,0.5,0.8,0.7,1c0.2,0.2,0.4,0.3,0.6,0.3
		C105.9,16.1,106.4,15.8,107,15.2C106.9,15.2,107,15.2,107,15.2z M102.5,9.9c-0.6,0.6-1,1.5-1.2,2.5l0,0.2c1.2-0.3,2.1-0.6,2.7-1
		s0.9-0.9,1-1.6c0-0.1,0-0.2,0-0.3c0-0.2-0.1-0.4-0.2-0.5s-0.3-0.2-0.5-0.2C103.7,8.9,103,9.2,102.5,9.9z"/>
	<path class="st0" d="M108,16.8c-0.2-0.2-0.2-0.4-0.2-0.7c0-0.3,0.1-0.5,0.2-0.6c0.2-0.2,0.4-0.2,0.7-0.2c0.3,0,0.5,0.1,0.6,0.2
		s0.2,0.4,0.2,0.6c0,0.3-0.1,0.5-0.2,0.7c-0.2,0.2-0.4,0.2-0.6,0.2C108.3,17,108.1,17,108,16.8z"/>
	<path class="st0" d="M112.5,16.2c-0.4-0.6-0.7-1.4-0.7-2.4c0-0.5,0-0.9,0.1-1.3c0.2-0.9,0.5-1.6,1-2.3c0.5-0.6,1-1.1,1.6-1.5
		c0.6-0.3,1.2-0.5,1.8-0.5c0.5,0,0.9,0.1,1.3,0.4c0.4,0.2,0.5,0.5,0.5,0.9c0,0.2-0.1,0.4-0.2,0.5s-0.3,0.2-0.5,0.2
		c-0.4,0-0.6-0.2-0.7-0.7c-0.1-0.2-0.2-0.4-0.3-0.5c-0.2-0.2-0.4-0.2-0.7-0.2c-0.6,0-1.2,0.3-1.6,0.9c-0.4,0.6-0.7,1.3-0.9,2.2
		c-0.1,0.6-0.1,1-0.1,1.4c0,0.9,0.2,1.7,0.6,2.2c0.4,0.6,1,0.9,1.7,0.9c0.7,0,1.4-0.3,2.2-1l0,0c0,0,0.1,0,0.1,0.1
		c0,0.1,0,0.1,0,0.1c-1.1,1-2.2,1.5-3.2,1.5C113.6,17.1,113,16.8,112.5,16.2z"/>
	<path class="st0" d="M119.7,16.2c-0.5-0.6-0.7-1.4-0.7-2.4c0-0.4,0-0.8,0.1-1.2c0.2-0.8,0.4-1.6,0.9-2.3c0.4-0.7,0.9-1.2,1.6-1.6
		c0.6-0.4,1.2-0.6,1.9-0.6c0.9,0,1.5,0.3,2,0.9c0.5,0.6,0.7,1.4,0.7,2.3c0,0.4,0,0.8-0.1,1.2c-0.2,0.9-0.5,1.7-0.9,2.3
		c-0.5,0.7-1,1.2-1.6,1.6c-0.6,0.4-1.2,0.5-1.9,0.5C120.8,17.1,120.2,16.8,119.7,16.2z M123.9,15.8c0.5-0.5,0.8-1.3,1-2.2
		c0.1-0.5,0.1-0.9,0.1-1.2c0-1-0.2-1.8-0.5-2.5c-0.4-0.7-0.9-1.1-1.6-1.1c-0.6,0-1.1,0.3-1.6,0.8c-0.5,0.5-0.8,1.3-1,2.2
		c-0.1,0.4-0.1,0.9-0.1,1.3c0,1,0.2,1.8,0.6,2.5c0.4,0.7,0.9,1,1.6,1C122.9,16.6,123.4,16.3,123.9,15.8z"/>
	<path class="st0" d="M140.2,15.1c0,0,0.1,0,0.1,0.1c0,0.1,0,0.1,0,0.1c-0.5,0.6-0.9,1-1.3,1.3c-0.4,0.3-0.7,0.4-1.1,0.4
		c-0.2,0-0.4-0.1-0.5-0.2c-0.1-0.1-0.2-0.4-0.2-0.7c0-0.3,0-0.7,0.1-1.2l0.6-3.4c0.1-0.4,0.1-0.8,0.1-1.2c0-0.4-0.1-0.7-0.2-0.9
		c-0.1-0.2-0.3-0.3-0.6-0.3c-0.4,0-0.9,0.3-1.3,0.9c-0.5,0.6-0.9,1.4-1.3,2.5c-0.4,1.1-0.8,2.4-1,3.9l0,0.3c0,0.1-0.1,0.2-0.2,0.2
		c-0.1,0.1-0.3,0.1-0.5,0.1c-0.2,0-0.3,0-0.4,0c-0.1,0-0.1-0.1-0.1-0.1l0.1-0.5l0.2-1.1l0.7-3.7c0.1-0.4,0.1-0.8,0.1-1.1
		c0-0.9-0.3-1.3-0.8-1.3c-0.4,0-0.9,0.3-1.3,0.9c-0.5,0.6-0.9,1.4-1.3,2.6c-0.4,1.1-0.8,2.4-1,3.9l0,0.2c0,0.2-0.3,0.3-0.7,0.3
		c-0.2,0-0.3,0-0.4,0c-0.1,0-0.1-0.1-0.1-0.1c0,0,0.1-0.3,0.2-0.9l0.1-0.6l0.9-4.9c0-0.2,0.1-0.4,0.1-0.6c0-0.5-0.1-0.7-0.4-0.7
		c-0.2,0-0.4,0.1-0.6,0.3c-0.3,0.2-0.5,0.4-0.8,0.7c0,0,0,0-0.1,0c0,0-0.1,0-0.1-0.1c0,0,0-0.1,0-0.1c0.5-0.6,0.9-1,1.3-1.2
		c0.4-0.3,0.8-0.4,1.1-0.4c0.2,0,0.4,0.1,0.5,0.2c0.1,0.1,0.2,0.4,0.2,0.7c0,0.4,0,0.7-0.1,1.1l-0.4,2.4c0.5-1.4,1.1-2.6,1.7-3.4
		c0.7-0.8,1.3-1.2,2-1.2c0.4,0,0.7,0.1,0.9,0.4c0.2,0.3,0.3,0.6,0.3,1.2c0,0.3,0,0.8-0.1,1.3l-0.3,1.9c0.5-1.5,1.1-2.7,1.7-3.5
		s1.4-1.2,2.1-1.2c0.4,0,0.7,0.1,1,0.4c0.2,0.3,0.3,0.7,0.3,1.2c0,0.3,0,0.8-0.1,1.2l-0.7,3.8c0,0.2-0.1,0.4-0.1,0.6
		c0,0.4,0.1,0.7,0.4,0.7C139.1,16.2,139.5,15.8,140.2,15.1C140.2,15.2,140.2,15.1,140.2,15.1z"/>
</g>
</svg>
