<?xml version="1.0" encoding="utf-8"?>
<!-- Generator: Adobe Illustrator 23.1.0, SVG Export Plug-In . SVG Version: 6.00 Build 0)  -->
<svg version="1.1" id="Layer_1" xmlns="http://www.w3.org/2000/svg" xmlns:xlink="http://www.w3.org/1999/xlink" x="0px" y="0px"
	 viewBox="0 0 18.7 18.7" style="enable-background:new 0 0 18.7 18.7;" xml:space="preserve">
<style type="text/css">
	.st0{fill:#AD9459;}
</style>
<a xlink:href="https://www.instagram.com/" >
	<g>
		<g>
			<ellipse class="st0" cx="9.4" cy="9.4" rx="3.1" ry="3.2"/>
		</g>
		<g>
			<path class="st0" d="M16.6,7.2v8.1c0,0.9-0.7,1.6-1.6,1.6H3.7c-0.9,0-1.6-0.7-1.6-1.6V7.2h3.7C5.4,7.8,5.2,8.6,5.2,9.4
				c0,2.4,1.9,4.3,4.1,4.3c2.3,0,4.1-1.9,4.1-4.3c0-0.8-0.2-1.5-0.6-2.1H16.6z"/>
		</g>
		<g>
			<path class="st0" d="M15.6,4.5V3.4c0-0.3-0.2-0.5-0.5-0.5h-1c-0.3,0-0.5,0.2-0.5,0.5v1.1c0,0.3,0.2,0.5,0.5,0.5h1
				C15.3,5.1,15.6,4.8,15.6,4.5z M16.6,3.4v2.7h-4.5c-0.7-0.7-1.7-1.1-2.7-1.1c-1.1,0-2,0.4-2.7,1.1H6.2V1.8H15
				C15.9,1.8,16.6,2.6,16.6,3.4z"/>
		</g>
		<g>
			<path class="st0" d="M5.2,1.8v4.3H2.1V3.4c0-0.9,0.7-1.6,1.6-1.6H5.2z"/>
		</g>
	</g>
</a>
</svg>
