<?xml version="1.0" encoding="utf-8"?>
<!-- Generator: Adobe Illustrator 23.1.0, SVG Export Plug-In . SVG Version: 6.00 Build 0)  -->
<svg version="1.1" id="Layer_1" xmlns="http://www.w3.org/2000/svg" xmlns:xlink="http://www.w3.org/1999/xlink" x="0px" y="0px"
	 viewBox="0 0 18.7 18.7" style="enable-background:new 0 0 18.7 18.7;" xml:space="preserve">
<style type="text/css">
	.st0{fill:#AD9459;}
</style>
<a xlink:href="https://twitter.com/explore" >
	<g>
		<g>
			<path class="st0" d="M18.1,3.9c-0.6,0.3-1.3,0.5-2.1,0.6c0.7-0.4,1.3-1.2,1.6-2c-0.7,0.4-1.5,0.7-2.3,0.9
				c-0.7-0.7-1.8-1.1-2.9-1.1c-2,0-3.3,1.6-3.3,3.6c0,0.3,0,0.6,0.1,0.8c-3-0.2-5.6-1.6-7.4-3.8C1.5,3.4,1.4,4,1.4,4.7
				C1.4,6,2,7.1,3,7.7c-0.6,0-1.1-0.2-1.6-0.5c0,0,0,0,0,0c0,1.7,1.2,3.2,2.9,3.5C3.9,10.9,3.6,11,3.3,11c-0.2,0-0.5,0-0.7-0.1
				c0.5,1.4,1.8,2.5,3.3,2.5c-1.2,1-2.8,1.5-4.4,1.5c-0.3,0-0.6,0-0.9-0.1c1.6,1,3.6,1.6,5.6,1.6c6.6,0,10-5.5,10-10.2
				c0-0.2,0-0.3,0-0.5C17,5.3,17.6,4.6,18.1,3.9z"/>
		</g>
	</g>
</a>
</svg>
